<svg width="1000" height="300" viewBox="0 0 1000 300" xmlns="http://www.w3.org/2000/svg">
<defs><style>
    @import url('https://fonts.googleapis.com/css2?family=Inter:wght@400;500;600;700;800&amp;family=JetBrains+Mono:wght@500;600;700&amp;display=swap');

    .glow-cyan { filter: drop-shadow(0 0 4px #00f0ff60); }
    .glow-violet { filter: drop-shadow(0 0 4px #8a2be260); }
    .pulse { animation: pulse 3s ease-in-out infinite alternate; }
    .pulse-fast { animation: pulse 1.5s ease-in-out infinite alternate; }
    .blink { animation: blink 1s step-end infinite; }
    .scanline { animation: scan 8s linear infinite; }
    .float { animation: float 4s ease-in-out infinite; }
    .rotate-slow { animation: rotate 20s linear infinite; }
    @keyframes pulse { 0% { opacity: 0.3; } 100% { opacity: 0.9; } }
    @keyframes blink { 50% { opacity: 0; } }
    @keyframes scan { 0% { transform: translateY(-100%); } 100% { transform: translateY(100%); } }
    @keyframes float { 0%, 100% { transform: translateY(0); } 50% { transform: translateY(-5px); } }
    @keyframes rotate { 0% { transform: rotate(0deg); } 100% { transform: rotate(360deg); } }
</style></defs>

<rect width="1000" height="300" rx="10" fill="#0a0e17" stroke="#161f30" stroke-width="1"/><rect width="998" height="298" x="1" y="1" rx="9" fill="none" stroke="#00f0ff40" stroke-width="0.5"/>
        <polyline points="14,2 2,2 2,14" fill="none" stroke="#00f0ff" stroke-width="1.5" class="glow-cyan"/>
        <polyline points="986,2 998,2 998,14" fill="none" stroke="#00f0ff" stroke-width="1.5" class="glow-cyan"/>
        <polyline points="2,286 2,298 14,298" fill="none" stroke="#00f0ff" stroke-width="1.5" class="glow-cyan"/>
        <polyline points="998,286 998,298 986,298" fill="none" stroke="#00f0ff" stroke-width="1.5" class="glow-cyan"/>
        
<rect width="1000" height="4" fill="#00f0ff" opacity="0.04" class="scanline"/>

<rect x="25" y="18" width="220" height="22" rx="4" fill="#00f0ff" fill-opacity="0.1" stroke="#00f0ff" stroke-opacity="0.4" stroke-width="0.5"/>
<text x="35" y="32" font-family="'JetBrains Mono', 'SF Mono', Consolas, 'ui-monospace', 'Liberation Mono', monospace" font-size="10" fill="#00f0ff" font-weight="700" letter-spacing="1.5">[SYS] TECH MATRIX &amp; SKILLS</text>

<g transform="translate(25, 25)">
    
        <g transform="translate(0, 55)">
            <text x="0" y="0" font-family="Inter, system-ui, -apple-system, BlinkMacSystemFont, 'Segoe UI', Roboto, sans-serif" font-size="12" font-weight="600" fill="#f0f6fc">Frontend Engineering (React / Next.js / Tailwind)</text>
            <text x="440" y="0" text-anchor="end" font-family="'JetBrains Mono', 'SF Mono', Consolas, 'ui-monospace', 'Liberation Mono', monospace" font-size="11" font-weight="700" fill="#00f0ff">94%</text>
            <rect x="0" y="10" width="440" height="8" rx="4" fill="#161f30"/>
            <rect x="0" y="10" width="394" height="8" rx="4" fill="#00f0ff">
                <animate attributeName="width" from="0" to="394" dur="1.5s" fill="freeze"/>
            </rect>
        </g>
        <g transform="translate(0, 103)">
            <text x="0" y="0" font-family="Inter, system-ui, -apple-system, BlinkMacSystemFont, 'Segoe UI', Roboto, sans-serif" font-size="12" font-weight="600" fill="#f0f6fc">Backend Development (Node.js / Express / Python)</text>
            <text x="440" y="0" text-anchor="end" font-family="'JetBrains Mono', 'SF Mono', Consolas, 'ui-monospace', 'Liberation Mono', monospace" font-size="11" font-weight="700" fill="#8a2be2">88%</text>
            <rect x="0" y="10" width="440" height="8" rx="4" fill="#161f30"/>
            <rect x="0" y="10" width="369" height="8" rx="4" fill="#8a2be2">
                <animate attributeName="width" from="0" to="369" dur="1.5s" fill="freeze"/>
            </rect>
        </g>
        <g transform="translate(0, 151)">
            <text x="0" y="0" font-family="Inter, system-ui, -apple-system, BlinkMacSystemFont, 'Segoe UI', Roboto, sans-serif" font-size="12" font-weight="600" fill="#f0f6fc">Database &amp; Storage (PostgreSQL / Redis / MongoDB)</text>
            <text x="440" y="0" text-anchor="end" font-family="'JetBrains Mono', 'SF Mono', Consolas, 'ui-monospace', 'Liberation Mono', monospace" font-size="11" font-weight="700" fill="#ffb700">82%</text>
            <rect x="0" y="10" width="440" height="8" rx="4" fill="#161f30"/>
            <rect x="0" y="10" width="344" height="8" rx="4" fill="#ffb700">
                <animate attributeName="width" from="0" to="344" dur="1.5s" fill="freeze"/>
            </rect>
        </g>
        <g transform="translate(0, 199)">
            <text x="0" y="0" font-family="Inter, system-ui, -apple-system, BlinkMacSystemFont, 'Segoe UI', Roboto, sans-serif" font-size="12" font-weight="600" fill="#f0f6fc">System Architecture &amp; DevOps (Docker / CI/CD / Linux)</text>
            <text x="440" y="0" text-anchor="end" font-family="'JetBrains Mono', 'SF Mono', Consolas, 'ui-monospace', 'Liberation Mono', monospace" font-size="11" font-weight="700" fill="#00ff66">78%</text>
            <rect x="0" y="10" width="440" height="8" rx="4" fill="#161f30"/>
            <rect x="0" y="10" width="327" height="8" rx="4" fill="#00ff66">
                <animate attributeName="width" from="0" to="327" dur="1.5s" fill="freeze"/>
            </rect>
        </g>
</g>

<line x1="500" y1="50" x2="500" y2="260" stroke="#161f30" stroke-width="1" stroke-dasharray="4 4"/>

<g transform="translate(535, 60)">
    
        <g transform="translate(0, 0)">
            <rect width="205" height="30" rx="6" fill="#030509" stroke="#161f30" stroke-width="1"/>
            <g transform="translate(8, 7)"><rect width="16" height="16" rx="3" fill="#3178c6"/><text x="8" y="12" font-family="Inter, system-ui, -apple-system, BlinkMacSystemFont, 'Segoe UI', Roboto, sans-serif" font-size="9" font-weight="800" fill="#ffffff" text-anchor="middle">TS</text></g>
            <text x="32" y="19" font-family="Inter, system-ui, -apple-system, BlinkMacSystemFont, 'Segoe UI', Roboto, sans-serif" font-size="11" font-weight="500" fill="#f0f6fc">TypeScript</text>
        </g>
        <g transform="translate(220, 0)">
            <rect width="205" height="30" rx="6" fill="#030509" stroke="#161f30" stroke-width="1"/>
            <g transform="translate(8, 7)"><rect width="16" height="16" rx="3" fill="#f7df1e"/><text x="8" y="12" font-family="Inter, system-ui, -apple-system, BlinkMacSystemFont, 'Segoe UI', Roboto, sans-serif" font-size="9" font-weight="800" fill="#000000" text-anchor="middle">JS</text></g>
            <text x="32" y="19" font-family="Inter, system-ui, -apple-system, BlinkMacSystemFont, 'Segoe UI', Roboto, sans-serif" font-size="11" font-weight="500" fill="#f0f6fc">JavaScript</text>
        </g>
        <g transform="translate(0, 38)">
            <rect width="205" height="30" rx="6" fill="#030509" stroke="#161f30" stroke-width="1"/>
            <g transform="translate(8, 7) scale(0.67)"><ellipse cx="12" cy="12" rx="11" ry="4.5" fill="none" stroke="#61dafb" stroke-width="1.5"/><ellipse cx="12" cy="12" rx="11" ry="4.5" fill="none" stroke="#61dafb" stroke-width="1.5" transform="rotate(60 12 12)"/><ellipse cx="12" cy="12" rx="11" ry="4.5" fill="none" stroke="#61dafb" stroke-width="1.5" transform="rotate(120 12 12)"/><circle cx="12" cy="12" r="2.5" fill="#61dafb"/></g>
            <text x="32" y="19" font-family="Inter, system-ui, -apple-system, BlinkMacSystemFont, 'Segoe UI', Roboto, sans-serif" font-size="11" font-weight="500" fill="#f0f6fc">React.js</text>
        </g>
        <g transform="translate(220, 38)">
            <rect width="205" height="30" rx="6" fill="#030509" stroke="#161f30" stroke-width="1"/>
            <g transform="translate(8, 7)"><circle cx="8" cy="8" r="8" fill="#000000" stroke="#ffffff" stroke-width="1"/><path d="M5 12 V4 L12 13.5 M11 4 V9" stroke="#ffffff" stroke-width="1.2" stroke-linecap="round" stroke-linejoin="round"/></g>
            <text x="32" y="19" font-family="Inter, system-ui, -apple-system, BlinkMacSystemFont, 'Segoe UI', Roboto, sans-serif" font-size="11" font-weight="500" fill="#f0f6fc">Next.js</text>
        </g>
        <g transform="translate(0, 76)">
            <rect width="205" height="30" rx="6" fill="#030509" stroke="#161f30" stroke-width="1"/>
            <g transform="translate(8, 7)"><polygon points="8,1 15,5 15,11 8,15 1,11 1,5" fill="#339933"/><text x="8" y="11.5" font-family="Inter, system-ui, -apple-system, BlinkMacSystemFont, 'Segoe UI', Roboto, sans-serif" font-size="7" font-weight="800" fill="#ffffff" text-anchor="middle">N</text></g>
            <text x="32" y="19" font-family="Inter, system-ui, -apple-system, BlinkMacSystemFont, 'Segoe UI', Roboto, sans-serif" font-size="11" font-weight="500" fill="#f0f6fc">Node.js</text>
        </g>
        <g transform="translate(220, 76)">
            <rect width="205" height="30" rx="6" fill="#030509" stroke="#161f30" stroke-width="1"/>
            <g transform="translate(8, 7) scale(0.67)"><path d="M12 2 C7 2 7 4 7 4 L7 7 L12 7 L12 8 L5 8 C5 8 2 8 2 13 C2 18 4.5 18 4.5 18 L6 18 L6 16.5 C6 14 8 14 8 14 L12 14 C14.5 14 14.5 12 14.5 12 L14.5 9 C14.5 9 14.5 7 12.5 7 L11 7 L11 8.5 C11 10 9.5 10 9.5 10 L6 10 L6 4 C6 2 12 2 12 2 Z" fill="#3776ab"/><path d="M12 22 C17 22 17 20 17 20 L17 17 L12 17 L12 16 L19 16 C19 16 22 16 22 11 C22 6 19.5 6 19.5 6 L18 6 L18 7.5 C18 10 16 10 16 10 L12 10 C9.5 10 9.5 12 9.5 12 L9.5 15 C9.5 15 9.5 17 11.5 17 L13 17 L13 15.5 C13 14 14.5 14 14.5 14 L18 14 L18 20 C18 22 12 22 12 22 Z" fill="#ffd43b"/></g>
            <text x="32" y="19" font-family="Inter, system-ui, -apple-system, BlinkMacSystemFont, 'Segoe UI', Roboto, sans-serif" font-size="11" font-weight="500" fill="#f0f6fc">Python</text>
        </g>
        <g transform="translate(0, 114)">
            <rect width="205" height="30" rx="6" fill="#030509" stroke="#161f30" stroke-width="1"/>
            <g transform="translate(8, 7) scale(0.67)"><path d="M6 6 C8 3 11 3 13 5 C11 7 10.5 8.5 12 10 C14 12 17.5 10 18.5 15 C16.5 18 13.5 18 11.5 16 C13.5 14 14 12.5 12.5 11 C10.5 9 7 11 6 6 Z" fill="#06b6d4"/><path d="M1 13 C3 10 6 10 8 12 C6 14 5.5 15.5 7 17 C9 19 12.5 17 13.5 22 C11.5 25 8.5 25 6.5 23 C8.5 21 9 19.5 7.5 18 C5.5 16 2 18 1 13 Z" fill="#06b6d4"/></g>
            <text x="32" y="19" font-family="Inter, system-ui, -apple-system, BlinkMacSystemFont, 'Segoe UI', Roboto, sans-serif" font-size="11" font-weight="500" fill="#f0f6fc">TailwindCSS</text>
        </g>
        <g transform="translate(220, 114)">
            <rect width="205" height="30" rx="6" fill="#030509" stroke="#161f30" stroke-width="1"/>
            <g transform="translate(8, 7)"><ellipse cx="8" cy="5" rx="7" ry="3" fill="#4169e1" opacity="0.9"/><path d="M1 5 V11 C1 13 15 13 15 11 V5" fill="none" stroke="#4169e1" stroke-width="1.5"/><path d="M1 8 C1 10 15 10 15 8" fill="none" stroke="#4169e1" stroke-width="1"/></g>
            <text x="32" y="19" font-family="Inter, system-ui, -apple-system, BlinkMacSystemFont, 'Segoe UI', Roboto, sans-serif" font-size="11" font-weight="500" fill="#f0f6fc">PostgreSQL</text>
        </g>
        <g transform="translate(0, 152)">
            <rect width="205" height="30" rx="6" fill="#030509" stroke="#161f30" stroke-width="1"/>
            <g transform="translate(8, 7)"><rect x="1" y="8" width="4" height="3" fill="#2496ed"/><rect x="6" y="8" width="4" height="3" fill="#2496ed"/><rect x="11" y="8" width="4" height="3" fill="#2496ed"/><rect x="6" y="4" width="4" height="3" fill="#2496ed"/><rect x="11" y="4" width="4" height="3" fill="#2496ed"/><path d="M0 12 C3 12 4 14 8 14 C12 14 14 12 16 12 C16 14 14 16 8 16 C3 16 0 14 0 12 Z" fill="#2496ed"/></g>
            <text x="32" y="19" font-family="Inter, system-ui, -apple-system, BlinkMacSystemFont, 'Segoe UI', Roboto, sans-serif" font-size="11" font-weight="500" fill="#f0f6fc">Docker</text>
        </g>
        <g transform="translate(220, 152)">
            <rect width="205" height="30" rx="6" fill="#030509" stroke="#161f30" stroke-width="1"/>
            <g transform="translate(8, 7)"><rect x="2" y="2" width="12" height="12" rx="2" fill="#f05032" transform="rotate(45 8 8)"/><circle cx="8" cy="5" r="1.5" fill="#ffffff"/><circle cx="5" cy="11" r="1.5" fill="#ffffff"/><circle cx="11" cy="11" r="1.5" fill="#ffffff"/><line x1="8" y1="5" x2="8" y2="11" stroke="#ffffff" stroke-width="1"/><line x1="8" y1="8" x2="11" y2="11" stroke="#ffffff" stroke-width="1"/></g>
            <text x="32" y="19" font-family="Inter, system-ui, -apple-system, BlinkMacSystemFont, 'Segoe UI', Roboto, sans-serif" font-size="11" font-weight="500" fill="#f0f6fc">Git / GitHub</text>
        </g>
        <g transform="translate(0, 190)">
            <rect width="205" height="30" rx="6" fill="#030509" stroke="#161f30" stroke-width="1"/>
            <g transform="translate(8, 7)"><rect x="1" y="2" width="14" height="12" rx="3" fill="none" stroke="#00f0ff" stroke-width="1.2"/><text x="8" y="11" font-family="'JetBrains Mono', 'SF Mono', Consolas, 'ui-monospace', 'Liberation Mono', monospace" font-size="7" font-weight="800" fill="#00f0ff" text-anchor="middle">API</text></g>
            <text x="32" y="19" font-family="Inter, system-ui, -apple-system, BlinkMacSystemFont, 'Segoe UI', Roboto, sans-serif" font-size="11" font-weight="500" fill="#f0f6fc">REST APIs</text>
        </g>
        <g transform="translate(220, 190)">
            <rect width="205" height="30" rx="6" fill="#030509" stroke="#161f30" stroke-width="1"/>
            <g transform="translate(8, 7)"><polygon points="9,1 2,9 7,9 5,15 14,7 9,7" fill="#8a2be2"/></g>
            <text x="32" y="19" font-family="Inter, system-ui, -apple-system, BlinkMacSystemFont, 'Segoe UI', Roboto, sans-serif" font-size="11" font-weight="500" fill="#f0f6fc">WebSockets</text>
        </g>
</g>
</svg>